<svg width="89" height="24" viewBox="0 0 89 24" fill="none" xmlns="http://www.w3.org/2000/svg">
<path d="M12 17C12.2833 17 12.521 16.904 12.713 16.712C12.9043 16.5207 13 16.2833 13 16V13H16.025C16.3083 13 16.5417 12.904 16.725 12.712C16.9083 12.5207 17 12.2833 17 12C17 11.7167 16.904 11.479 16.712 11.287C16.5207 11.0957 16.2833 11 16 11H13V7.975C13 7.69167 12.9043 7.45833 12.713 7.275C12.521 7.09167 12.2833 7 12 7C11.7167 7 11.4793 7.09567 11.288 7.287C11.096 7.479 11 7.71667 11 8V11H7.975C7.69167 11 7.45833 11.0957 7.275 11.287C7.09167 11.479 7 11.7167 7 12C7 12.2833 7.09567 12.5207 7.287 12.712C7.479 12.904 7.71667 13 8 13H11V16.025C11 16.3083 11.096 16.5417 11.288 16.725C11.4793 16.9083 11.7167 17 12 17ZM12 22C10.6167 22 9.31667 21.7373 8.1 21.212C6.88333 20.6873 5.825 19.975 4.925 19.075C4.025 18.175 3.31267 17.1167 2.788 15.9C2.26267 14.6833 2 13.3833 2 12C2 10.6167 2.26267 9.31667 2.788 8.1C3.31267 6.88333 4.025 5.825 4.925 4.925C5.825 4.025 6.88333 3.31233 8.1 2.787C9.31667 2.26233 10.6167 2 12 2C13.3833 2 14.6833 2.26233 15.9 2.787C17.1167 3.31233 18.175 4.025 19.075 4.925C19.975 5.825 20.6873 6.88333 21.212 8.1C21.7373 9.31667 22 10.6167 22 12C22 13.3833 21.7373 14.6833 21.212 15.9C20.6873 17.1167 19.975 18.175 19.075 19.075C18.175 19.975 17.1167 20.6873 15.9 21.212C14.6833 21.7373 13.3833 22 12 22ZM12 20C14.2167 20 16.1043 19.221 17.663 17.663C19.221 16.1043 20 14.2167 20 12C20 9.78333 19.221 7.89567 17.663 6.337C16.1043 4.779 14.2167 4 12 4C9.78333 4 7.896 4.779 6.338 6.337C4.77933 7.89567 4 9.78333 4 12C4 14.2167 4.77933 16.1043 6.338 17.663C7.896 19.221 9.78333 20 12 20Z" fill="#2192FF"/>
<path d="M30.179 16H29.2557L31.9261 8.72727H32.8352L35.5057 16H34.5824L32.4091 9.87784H32.3523L30.179 16ZM30.5199 13.1591H34.2415V13.9403H30.5199V13.1591ZM38.5845 16.1136C38.13 16.1136 37.7287 15.9988 37.3807 15.7692C37.0327 15.5372 36.7604 15.2105 36.5639 14.7891C36.3674 14.3653 36.2692 13.8646 36.2692 13.2869C36.2692 12.714 36.3674 12.2169 36.5639 11.7955C36.7604 11.3741 37.0339 11.0485 37.3842 10.8189C37.7346 10.5893 38.1394 10.4744 38.5987 10.4744C38.9538 10.4744 39.2344 10.5336 39.4403 10.652C39.6487 10.768 39.8073 10.9006 39.9162 11.0497C40.0275 11.1965 40.1139 11.3172 40.1754 11.4119H40.2464V8.72727H41.0845V16H40.2749V15.1619H40.1754C40.1139 15.2614 40.0263 15.3868 39.9126 15.5384C39.799 15.6875 39.6368 15.8213 39.4261 15.9396C39.2154 16.0556 38.9349 16.1136 38.5845 16.1136ZM38.6982 15.3608C39.0343 15.3608 39.3184 15.2732 39.5504 15.098C39.7824 14.9205 39.9588 14.6754 40.0795 14.3629C40.2003 14.0481 40.2607 13.6847 40.2607 13.2727C40.2607 12.8655 40.2015 12.5092 40.0831 12.2038C39.9647 11.8961 39.7895 11.657 39.5575 11.4865C39.3255 11.3137 39.0391 11.2273 38.6982 11.2273C38.343 11.2273 38.0471 11.3184 37.8104 11.5007C37.576 11.6806 37.3996 11.9257 37.2812 12.2358C37.1652 12.5436 37.1072 12.8892 37.1072 13.2727C37.1072 13.661 37.1664 14.0137 37.2848 14.331C37.4055 14.6458 37.5831 14.8968 37.8175 15.0838C38.0542 15.2685 38.3478 15.3608 38.6982 15.3608ZM44.7955 16.1136C44.3409 16.1136 43.9396 15.9988 43.5916 15.7692C43.2436 15.5372 42.9714 15.2105 42.7749 14.7891C42.5784 14.3653 42.4801 13.8646 42.4801 13.2869C42.4801 12.714 42.5784 12.2169 42.7749 11.7955C42.9714 11.3741 43.2448 11.0485 43.5952 10.8189C43.9455 10.5893 44.3504 10.4744 44.8097 10.4744C45.1648 10.4744 45.4453 10.5336 45.6513 10.652C45.8596 10.768 46.0182 10.9006 46.1271 11.0497C46.2384 11.1965 46.3248 11.3172 46.3864 11.4119H46.4574V8.72727H47.2955V16H46.4858V15.1619H46.3864C46.3248 15.2614 46.2372 15.3868 46.1236 15.5384C46.0099 15.6875 45.8478 15.8213 45.6371 15.9396C45.4264 16.0556 45.1458 16.1136 44.7955 16.1136ZM44.9091 15.3608C45.2453 15.3608 45.5294 15.2732 45.7614 15.098C45.9934 14.9205 46.1697 14.6754 46.2905 14.3629C46.4112 14.0481 46.4716 13.6847 46.4716 13.2727C46.4716 12.8655 46.4124 12.5092 46.294 12.2038C46.1757 11.8961 46.0005 11.657 45.7685 11.4865C45.5365 11.3137 45.25 11.2273 44.9091 11.2273C44.554 11.2273 44.258 11.3184 44.0213 11.5007C43.7869 11.6806 43.6106 11.9257 43.4922 12.2358C43.3762 12.5436 43.3182 12.8892 43.3182 13.2727C43.3182 13.661 43.3774 14.0137 43.4957 14.331C43.6165 14.6458 43.794 14.8968 44.0284 15.0838C44.2652 15.2685 44.5587 15.3608 44.9091 15.3608ZM51.8729 16V8.72727H54.3303C54.9008 8.72727 55.3672 8.83026 55.7294 9.03622C56.094 9.23982 56.3639 9.51562 56.5391 9.86364C56.7143 10.2116 56.8018 10.5999 56.8018 11.0284C56.8018 11.4569 56.7143 11.8464 56.5391 12.1967C56.3662 12.5471 56.0987 12.8265 55.7365 13.0348C55.3743 13.2408 54.9103 13.3438 54.3445 13.3438H52.5831V12.5625H54.3161C54.7067 12.5625 55.0204 12.495 55.2571 12.3601C55.4938 12.2251 55.6655 12.0429 55.772 11.8132C55.8809 11.5812 55.9354 11.3196 55.9354 11.0284C55.9354 10.7372 55.8809 10.4768 55.772 10.2472C55.6655 10.0175 55.4927 9.83759 55.2536 9.70739C55.0144 9.57481 54.6972 9.50852 54.3018 9.50852H52.7536V16H51.8729ZM58.1069 16V10.5455H58.9165V11.3693H58.9734C59.0728 11.0994 59.2527 10.8804 59.5131 10.7124C59.7736 10.5443 60.0671 10.4602 60.3938 10.4602C60.4554 10.4602 60.5323 10.4614 60.6246 10.4638C60.717 10.4661 60.7868 10.4697 60.8342 10.4744V11.3267C60.8058 11.3196 60.7406 11.3089 60.6388 11.2947C60.5394 11.2782 60.4341 11.2699 60.3228 11.2699C60.0576 11.2699 59.8209 11.3255 59.6126 11.4368C59.4066 11.5457 59.2433 11.6972 59.1225 11.8913C59.0041 12.0831 58.945 12.3021 58.945 12.5483V16H58.1069ZM63.8775 16.1136C63.3851 16.1136 62.953 15.9964 62.5813 15.7621C62.212 15.5277 61.9232 15.1998 61.7148 14.7784C61.5089 14.357 61.4059 13.8646 61.4059 13.3011C61.4059 12.733 61.5089 12.237 61.7148 11.8132C61.9232 11.3894 62.212 11.0604 62.5813 10.826C62.953 10.5916 63.3851 10.4744 63.8775 10.4744C64.3699 10.4744 64.8008 10.5916 65.1701 10.826C65.5418 11.0604 65.8306 11.3894 66.0366 11.8132C66.2449 12.237 66.3491 12.733 66.3491 13.3011C66.3491 13.8646 66.2449 14.357 66.0366 14.7784C65.8306 15.1998 65.5418 15.5277 65.1701 15.7621C64.8008 15.9964 64.3699 16.1136 63.8775 16.1136ZM63.8775 15.3608C64.2515 15.3608 64.5593 15.2649 64.8008 15.0732C65.0423 14.8814 65.221 14.6293 65.337 14.3168C65.453 14.0043 65.511 13.6657 65.511 13.3011C65.511 12.9366 65.453 12.5968 65.337 12.282C65.221 11.9671 65.0423 11.7126 64.8008 11.5185C64.5593 11.3243 64.2515 11.2273 63.8775 11.2273C63.5034 11.2273 63.1957 11.3243 62.9542 11.5185C62.7127 11.7126 62.534 11.9671 62.418 12.282C62.302 12.5968 62.244 12.9366 62.244 13.3011C62.244 13.6657 62.302 14.0043 62.418 14.3168C62.534 14.6293 62.7127 14.8814 62.9542 15.0732C63.1957 15.2649 63.5034 15.3608 63.8775 15.3608ZM69.688 16.1136C69.2335 16.1136 68.8322 15.9988 68.4842 15.7692C68.1362 15.5372 67.8639 15.2105 67.6674 14.7891C67.4709 14.3653 67.3727 13.8646 67.3727 13.2869C67.3727 12.714 67.4709 12.2169 67.6674 11.7955C67.8639 11.3741 68.1374 11.0485 68.4877 10.8189C68.8381 10.5893 69.243 10.4744 69.7022 10.4744C70.0574 10.4744 70.3379 10.5336 70.5439 10.652C70.7522 10.768 70.9108 10.9006 71.0197 11.0497C71.131 11.1965 71.2174 11.3172 71.2789 11.4119H71.35V8.72727H72.188V16H71.3784V15.1619H71.2789C71.2174 15.2614 71.1298 15.3868 71.0162 15.5384C70.9025 15.6875 70.7404 15.8213 70.5297 15.9396C70.319 16.0556 70.0384 16.1136 69.688 16.1136ZM69.8017 15.3608C70.1378 15.3608 70.4219 15.2732 70.6539 15.098C70.8859 14.9205 71.0623 14.6754 71.1831 14.3629C71.3038 14.0481 71.3642 13.6847 71.3642 13.2727C71.3642 12.8655 71.305 12.5092 71.1866 12.2038C71.0682 11.8961 70.8931 11.657 70.661 11.4865C70.429 11.3137 70.1426 11.2273 69.8017 11.2273C69.4466 11.2273 69.1506 11.3184 68.9139 11.5007C68.6795 11.6806 68.5031 11.9257 68.3848 12.2358C68.2688 12.5436 68.2108 12.8892 68.2108 13.2727C68.2108 13.661 68.2699 14.0137 68.3883 14.331C68.5091 14.6458 68.6866 14.8968 68.921 15.0838C69.1577 15.2685 69.4513 15.3608 69.8017 15.3608ZM77.2768 13.7699V10.5455H78.1149V16H77.2768V15.0767H77.22C77.0922 15.3537 76.8933 15.5893 76.6234 15.7834C76.3535 15.9751 76.0126 16.071 75.6007 16.071C75.2598 16.071 74.9567 15.9964 74.6916 15.8473C74.4264 15.6958 74.2181 15.4685 74.0666 15.1655C73.9151 14.8601 73.8393 14.4754 73.8393 14.0114V10.5455H74.6774V13.9545C74.6774 14.3523 74.7886 14.6695 75.0112 14.9062C75.2361 15.143 75.5225 15.2614 75.8706 15.2614C76.0789 15.2614 76.2908 15.2081 76.5062 15.1016C76.724 14.995 76.9063 14.8317 77.0531 14.6115C77.2022 14.3913 77.2768 14.1108 77.2768 13.7699ZM81.8658 16.1136C81.3544 16.1136 80.9141 15.9929 80.5447 15.7514C80.1754 15.5099 79.8913 15.1773 79.6925 14.7536C79.4936 14.3298 79.3942 13.8456 79.3942 13.3011C79.3942 12.7472 79.496 12.2583 79.6996 11.8345C79.9055 11.4084 80.192 11.0758 80.5589 10.8366C80.9283 10.5952 81.3591 10.4744 81.8516 10.4744C82.2351 10.4744 82.5807 10.5455 82.8885 10.6875C83.1963 10.8295 83.4484 11.0284 83.6449 11.2841C83.8414 11.5398 83.9633 11.8381 84.0107 12.179H83.1726C83.1087 11.9304 82.9666 11.7102 82.7464 11.5185C82.5286 11.3243 82.2351 11.2273 81.8658 11.2273C81.5391 11.2273 81.2526 11.3125 81.0064 11.483C80.7625 11.651 80.572 11.889 80.4347 12.1967C80.2997 12.5021 80.2322 12.8608 80.2322 13.2727C80.2322 13.6941 80.2985 14.0611 80.4311 14.3736C80.5661 14.6861 80.7554 14.9287 80.9993 15.1016C81.2455 15.2744 81.5343 15.3608 81.8658 15.3608C82.0836 15.3608 82.2812 15.3229 82.4588 15.2472C82.6364 15.1714 82.7867 15.0625 82.9098 14.9205C83.0329 14.7784 83.1205 14.608 83.1726 14.4091H84.0107C83.9633 14.7311 83.8461 15.0211 83.6591 15.2791C83.4744 15.5348 83.2294 15.7384 82.924 15.8899C82.621 16.0391 82.2682 16.1136 81.8658 16.1136ZM87.608 10.5455V11.2557H84.7812V10.5455H87.608ZM85.6051 9.23864H86.4432V14.4375C86.4432 14.6742 86.4775 14.8518 86.5462 14.9702C86.6172 15.0862 86.7071 15.1643 86.8161 15.2045C86.9273 15.2424 87.0445 15.2614 87.1676 15.2614C87.2599 15.2614 87.3357 15.2566 87.3949 15.2472C87.4541 15.2353 87.5014 15.2259 87.5369 15.2188L87.7074 15.9716C87.6506 15.9929 87.5713 16.0142 87.4695 16.0355C87.3677 16.0592 87.2386 16.071 87.0824 16.071C86.8456 16.071 86.6136 16.0201 86.3864 15.9183C86.1615 15.8165 85.9744 15.6615 85.8253 15.4531C85.6785 15.2448 85.6051 14.982 85.6051 14.6648V9.23864Z" fill="black"/>
</svg>
