<svg width="16" height="16" viewBox="0 0 16 16" fill="none" xmlns="http://www.w3.org/2000/svg">
<path d="M4.00001 14.6667C3.63334 14.6667 3.31956 14.5362 3.05867 14.2753C2.79734 14.014 2.66667 13.7 2.66667 13.3333V2.66666C2.66667 2.29999 2.79734 1.98599 3.05867 1.72466C3.31956 1.46377 3.63334 1.33333 4.00001 1.33333H9.33334L13.3333 5.33333V7.99999H12V5.99999H8.66667V2.66666H4.00001V13.3333H8V14.6667H4.00001ZM4.00001 13.3333V2.66666V13.3333ZM12.2 9.68333L12.9167 10.4L10.3333 12.9667V13.6667H11.0333L13.6167 11.1L14.3167 11.8L11.45 14.6667H9.33334V12.55L12.2 9.68333ZM14.3167 11.8L12.2 9.68333L13.1667 8.71666C13.2889 8.59444 13.4444 8.53333 13.6333 8.53333C13.8222 8.53333 13.9778 8.59444 14.1 8.71666L15.2833 9.89999C15.4056 10.0222 15.4667 10.1778 15.4667 10.3667C15.4667 10.5555 15.4056 10.7111 15.2833 10.8333L14.3167 11.8Z" fill="#2192FF"/>
</svg>
