<svg width="30" height="30" viewBox="0 0 30 30" fill="none" xmlns="http://www.w3.org/2000/svg">
<path d="M15 21.25C15.3542 21.25 15.6513 21.13 15.8913 20.89C16.1304 20.6508 16.25 20.3542 16.25 20C16.25 19.6458 16.1304 19.3487 15.8913 19.1087C15.6513 18.8696 15.3542 18.75 15 18.75C14.6458 18.75 14.3492 18.8696 14.11 19.1087C13.87 19.3487 13.75 19.6458 13.75 20C13.75 20.3542 13.87 20.6508 14.11 20.89C14.3492 21.13 14.6458 21.25 15 21.25ZM15 16.25C15.3542 16.25 15.6513 16.13 15.8913 15.89C16.1304 15.6508 16.25 15.3542 16.25 15V10C16.25 9.64583 16.1304 9.34875 15.8913 9.10875C15.6513 8.86958 15.3542 8.75 15 8.75C14.6458 8.75 14.3492 8.86958 14.11 9.10875C13.87 9.34875 13.75 9.64583 13.75 10V15C13.75 15.3542 13.87 15.6508 14.11 15.89C14.3492 16.13 14.6458 16.25 15 16.25ZM15 27.5C13.2708 27.5 11.6458 27.1717 10.125 26.515C8.60417 25.8592 7.28125 24.9688 6.15625 23.8438C5.03125 22.7188 4.14083 21.3958 3.485 19.875C2.82833 18.3542 2.5 16.7292 2.5 15C2.5 13.2708 2.82833 11.6458 3.485 10.125C4.14083 8.60417 5.03125 7.28125 6.15625 6.15625C7.28125 5.03125 8.60417 4.14042 10.125 3.48375C11.6458 2.82792 13.2708 2.5 15 2.5C16.7292 2.5 18.3542 2.82792 19.875 3.48375C21.3958 4.14042 22.7188 5.03125 23.8438 6.15625C24.9688 7.28125 25.8592 8.60417 26.515 10.125C27.1717 11.6458 27.5 13.2708 27.5 15C27.5 16.7292 27.1717 18.3542 26.515 19.875C25.8592 21.3958 24.9688 22.7188 23.8438 23.8438C22.7188 24.9688 21.3958 25.8592 19.875 26.515C18.3542 27.1717 16.7292 27.5 15 27.5ZM15 25C17.7917 25 20.1562 24.0312 22.0937 22.0937C24.0312 20.1562 25 17.7917 25 15C25 12.2083 24.0312 9.84375 22.0937 7.90625C20.1562 5.96875 17.7917 5 15 5C12.2083 5 9.84375 5.96875 7.90625 7.90625C5.96875 9.84375 5 12.2083 5 15C5 17.7917 5.96875 20.1562 7.90625 22.0937C9.84375 24.0312 12.2083 25 15 25Z" fill="#FF0000"/>
</svg>
