<svg width="27" height="36" viewBox="0 0 27 36" fill="none" xmlns="http://www.w3.org/2000/svg">
<path d="M4.84 29.04C4.68533 28.7147 4.46133 28.464 4.168 28.288C3.87467 28.1067 3.53333 28.016 3.144 28.016C2.75467 28.016 2.40267 28.1067 2.088 28.288C1.77867 28.464 1.53333 28.72 1.352 29.056C1.176 29.3867 1.088 29.7707 1.088 30.208C1.088 30.6453 1.176 31.0293 1.352 31.36C1.53333 31.6907 1.77867 31.9467 2.088 32.128C2.40267 32.304 2.75467 32.392 3.144 32.392C3.688 32.392 4.136 32.2293 4.488 31.904C4.84 31.5787 5.04533 31.1387 5.104 30.584H2.88V29.992H5.88V30.552C5.83733 31.0107 5.69333 31.432 5.448 31.816C5.20267 32.1947 4.88 32.496 4.48 32.72C4.08 32.9387 3.63467 33.048 3.144 33.048C2.62667 33.048 2.15467 32.928 1.728 32.688C1.30133 32.4427 0.962667 32.104 0.712 31.672C0.466667 31.24 0.344 30.752 0.344 30.208C0.344 29.664 0.466667 29.176 0.712 28.744C0.962667 28.3067 1.30133 27.968 1.728 27.728C2.15467 27.4827 2.62667 27.36 3.144 27.36C3.736 27.36 4.25867 27.5067 4.712 27.8C5.17067 28.0933 5.504 28.5067 5.712 29.04H4.84ZM8.75456 33.072C8.3439 33.072 7.97056 32.9787 7.63456 32.792C7.3039 32.6053 7.04256 32.3413 6.85056 32C6.6639 31.6533 6.57056 31.2533 6.57056 30.8C6.57056 30.352 6.66656 29.9573 6.85856 29.616C7.0559 29.2693 7.32256 29.0053 7.65856 28.824C7.99456 28.6373 8.37056 28.544 8.78656 28.544C9.20256 28.544 9.57856 28.6373 9.91456 28.824C10.2506 29.0053 10.5146 29.2667 10.7066 29.608C10.9039 29.9493 11.0026 30.3467 11.0026 30.8C11.0026 31.2533 10.9012 31.6533 10.6986 32C10.5012 32.3413 10.2319 32.6053 9.89056 32.792C9.54923 32.9787 9.17056 33.072 8.75456 33.072ZM8.75456 32.432C9.0159 32.432 9.26123 32.3707 9.49056 32.248C9.7199 32.1253 9.9039 31.9413 10.0426 31.696C10.1866 31.4507 10.2586 31.152 10.2586 30.8C10.2586 30.448 10.1892 30.1493 10.0506 29.904C9.9119 29.6587 9.73056 29.4773 9.50656 29.36C9.28256 29.2373 9.0399 29.176 8.77856 29.176C8.5119 29.176 8.26656 29.2373 8.04256 29.36C7.8239 29.4773 7.6479 29.6587 7.51456 29.904C7.38123 30.1493 7.31456 30.448 7.31456 30.8C7.31456 31.1573 7.37856 31.4587 7.50656 31.704C7.6399 31.9493 7.8159 32.1333 8.03456 32.256C8.25323 32.3733 8.49323 32.432 8.75456 32.432ZM13.8718 33.072C13.4611 33.072 13.0878 32.9787 12.7518 32.792C12.4211 32.6053 12.1598 32.3413 11.9678 32C11.7811 31.6533 11.6878 31.2533 11.6878 30.8C11.6878 30.352 11.7838 29.9573 11.9758 29.616C12.1731 29.2693 12.4398 29.0053 12.7758 28.824C13.1118 28.6373 13.4878 28.544 13.9038 28.544C14.3198 28.544 14.6958 28.6373 15.0318 28.824C15.3678 29.0053 15.6318 29.2667 15.8238 29.608C16.0211 29.9493 16.1198 30.3467 16.1198 30.8C16.1198 31.2533 16.0184 31.6533 15.8158 32C15.6184 32.3413 15.3491 32.6053 15.0078 32.792C14.6664 32.9787 14.2878 33.072 13.8718 33.072ZM13.8718 32.432C14.1331 32.432 14.3784 32.3707 14.6078 32.248C14.8371 32.1253 15.0211 31.9413 15.1598 31.696C15.3038 31.4507 15.3758 31.152 15.3758 30.8C15.3758 30.448 15.3064 30.1493 15.1678 29.904C15.0291 29.6587 14.8478 29.4773 14.6238 29.36C14.3998 29.2373 14.1571 29.176 13.8958 29.176C13.6291 29.176 13.3838 29.2373 13.1598 29.36C12.9411 29.4773 12.7651 29.6587 12.6318 29.904C12.4984 30.1493 12.4318 30.448 12.4318 30.8C12.4318 31.1573 12.4958 31.4587 12.6238 31.704C12.7571 31.9493 12.9331 32.1333 13.1518 32.256C13.3704 32.3733 13.6104 32.432 13.8718 32.432ZM16.8049 30.792C16.8049 30.344 16.8956 29.952 17.0769 29.616C17.2583 29.2747 17.5063 29.0107 17.8209 28.824C18.1409 28.6373 18.4983 28.544 18.8929 28.544C19.2343 28.544 19.5516 28.624 19.8449 28.784C20.1383 28.9387 20.3623 29.144 20.5169 29.4V27.08H21.2529V33H20.5169V32.176C20.3729 32.4373 20.1596 32.6533 19.8769 32.824C19.5943 32.9893 19.2636 33.072 18.8849 33.072C18.4956 33.072 18.1409 32.976 17.8209 32.784C17.5063 32.592 17.2583 32.3227 17.0769 31.976C16.8956 31.6293 16.8049 31.2347 16.8049 30.792ZM20.5169 30.8C20.5169 30.4693 20.4503 30.1813 20.3169 29.936C20.1836 29.6907 20.0023 29.504 19.7729 29.376C19.5489 29.2427 19.3009 29.176 19.0289 29.176C18.7569 29.176 18.5089 29.24 18.2849 29.368C18.0609 29.496 17.8823 29.6827 17.7489 29.928C17.6156 30.1733 17.5489 30.4613 17.5489 30.792C17.5489 31.128 17.6156 31.4213 17.7489 31.672C17.8823 31.9173 18.0609 32.1067 18.2849 32.24C18.5089 32.368 18.7569 32.432 19.0289 32.432C19.3009 32.432 19.5489 32.368 19.7729 32.24C20.0023 32.1067 20.1836 31.9173 20.3169 31.672C20.4503 31.4213 20.5169 31.1307 20.5169 30.8ZM24.0352 33.072C23.6992 33.072 23.3979 33.016 23.1312 32.904C22.8645 32.7867 22.6539 32.6267 22.4992 32.424C22.3445 32.216 22.2592 31.9787 22.2432 31.712H22.9952C23.0165 31.9307 23.1179 32.1093 23.2992 32.248C23.4859 32.3867 23.7285 32.456 24.0272 32.456C24.3045 32.456 24.5232 32.3947 24.6832 32.272C24.8432 32.1493 24.9232 31.9947 24.9232 31.808C24.9232 31.616 24.8379 31.4747 24.6672 31.384C24.4965 31.288 24.2325 31.1947 23.8752 31.104C23.5499 31.0187 23.2832 30.9333 23.0752 30.848C22.8725 30.7573 22.6965 30.6267 22.5472 30.456C22.4032 30.28 22.3312 30.0507 22.3312 29.768C22.3312 29.544 22.3979 29.3387 22.5312 29.152C22.6645 28.9653 22.8539 28.8187 23.0992 28.712C23.3445 28.6 23.6245 28.544 23.9392 28.544C24.4245 28.544 24.8165 28.6667 25.1152 28.912C25.4139 29.1573 25.5739 29.4933 25.5952 29.92H24.8672C24.8512 29.6907 24.7579 29.5067 24.5872 29.368C24.4219 29.2293 24.1979 29.16 23.9152 29.16C23.6539 29.16 23.4459 29.216 23.2912 29.328C23.1365 29.44 23.0592 29.5867 23.0592 29.768C23.0592 29.912 23.1045 30.032 23.1952 30.128C23.2912 30.2187 23.4085 30.2933 23.5472 30.352C23.6912 30.4053 23.8885 30.4667 24.1392 30.536C24.4539 30.6213 24.7099 30.7067 24.9072 30.792C25.1045 30.872 25.2725 30.9947 25.4112 31.16C25.5552 31.3253 25.6299 31.5413 25.6352 31.808C25.6352 32.048 25.5685 32.264 25.4352 32.456C25.3019 32.648 25.1125 32.8 24.8672 32.912C24.6272 33.0187 24.3499 33.072 24.0352 33.072Z" fill="#F5F5F5"/>
<path d="M5.5 8.25H20.5L22 21H4L5.5 8.25ZM8.5 13.5H10V10.5H8.5V13.5ZM16 13.5H17.5V10.5H16V13.5ZM10 6.75H8.5C8.5 5.55653 8.97411 4.41193 9.81802 3.56802C10.6619 2.72411 11.8065 2.25 13 2.25C14.1935 2.25 15.3381 2.72411 16.182 3.56802C17.0259 4.41193 17.5 5.55653 17.5 6.75H16C16 5.95435 15.6839 5.19129 15.1213 4.62868C14.5587 4.06607 13.7956 3.75 13 3.75C12.2044 3.75 11.4413 4.06607 10.8787 4.62868C10.3161 5.19129 10 5.95435 10 6.75Z" fill="#F5F5F5"/>
</svg>
