<svg width="28" height="36" viewBox="0 0 28 36" fill="none" xmlns="http://www.w3.org/2000/svg">
<rect x="2" width="24" height="24" rx="12" fill="#F5F5F5"/>
<path d="M17.2998 16.7L12.9998 12.4V6.99999H14.9998V11.6L18.6998 15.3L17.2998 16.7ZM4.8498 16.075C4.63314 15.5917 4.45814 15.0917 4.3248 14.575C4.19147 14.0583 4.0998 13.5333 4.0498 13H6.0748C6.1248 13.35 6.19547 13.7 6.2868 14.05C6.3788 14.4 6.49147 14.7417 6.6248 15.075L4.8498 16.075ZM4.0498 11C4.0998 10.4667 4.19147 9.93732 4.3248 9.41199C4.45814 8.88732 4.64147 8.38332 4.8748 7.89999L6.6248 8.89999C6.49147 9.23332 6.3788 9.57499 6.2868 9.92499C6.19547 10.275 6.1248 10.6333 6.0748 11H4.0498ZM8.1748 20.15C7.7248 19.8167 7.30814 19.454 6.9248 19.062C6.54147 18.6707 6.18314 18.25 5.8498 17.8L7.5998 16.8C7.83314 17.1 8.07914 17.379 8.3378 17.637C8.5958 17.8957 8.8748 18.1417 9.1748 18.375L8.1748 20.15ZM7.6248 7.17499L5.8498 6.17499C6.18314 5.72499 6.54147 5.30832 6.9248 4.92499C7.30814 4.54165 7.7248 4.18332 8.1748 3.84999L9.1748 5.62499C8.89147 5.85832 8.6208 6.10399 8.3628 6.36199C8.10414 6.62065 7.85814 6.89165 7.6248 7.17499ZM12.9998 21.95C12.4665 21.9 11.9375 21.8083 11.4128 21.675C10.8875 21.5417 10.3831 21.3583 9.89981 21.125L10.8998 19.375C11.2331 19.5083 11.5748 19.6207 11.9248 19.712C12.2748 19.804 12.6331 19.875 12.9998 19.925V21.95ZM10.8998 4.62499L9.89981 2.87499C10.3831 2.64165 10.8875 2.45832 11.4128 2.32499C11.9375 2.19165 12.4665 2.09999 12.9998 2.04999V4.07499C12.6331 4.12499 12.2748 4.19565 11.9248 4.28699C11.5748 4.37899 11.2331 4.49165 10.8998 4.62499ZM14.9998 21.95V19.925C15.3665 19.875 15.7248 19.804 16.0748 19.712C16.4248 19.6207 16.7665 19.5083 17.0998 19.375L18.0998 21.125C17.6165 21.3583 17.1125 21.5417 16.5878 21.675C16.0625 21.8083 15.5331 21.9 14.9998 21.95ZM17.0998 4.62499C16.7665 4.49165 16.4248 4.37899 16.0748 4.28699C15.7248 4.19565 15.3665 4.12499 14.9998 4.07499V2.04999C15.5331 2.09999 16.0625 2.19165 16.5878 2.32499C17.1125 2.45832 17.6165 2.64165 18.0998 2.87499L17.0998 4.62499ZM19.8248 20.15L18.8248 18.375C19.1081 18.1417 19.3791 17.8957 19.6378 17.637C19.8958 17.379 20.1415 17.1083 20.3748 16.825L22.1498 17.825C21.8165 18.275 21.4581 18.6957 21.0748 19.087C20.6915 19.479 20.2748 19.8333 19.8248 20.15ZM20.3748 7.17499C20.1415 6.89165 19.8958 6.62065 19.6378 6.36199C19.3791 6.10399 19.1081 5.85832 18.8248 5.62499L19.8248 3.84999C20.2748 4.16665 20.6915 4.51665 21.0748 4.89999C21.4581 5.28332 21.8081 5.69999 22.1248 6.14999L20.3748 7.17499ZM21.9248 11C21.8748 10.6333 21.8041 10.275 21.7128 9.92499C21.6208 9.57499 21.5081 9.23332 21.3748 8.89999L23.1248 7.87499C23.3415 8.37499 23.5208 8.88732 23.6628 9.41199C23.8041 9.93732 23.8998 10.4667 23.9498 11H21.9248ZM23.1248 16.1L21.3748 15.1C21.5081 14.7667 21.6208 14.425 21.7128 14.075C21.8041 13.725 21.8748 13.3667 21.9248 13H23.9498C23.8998 13.5333 23.8081 14.0623 23.6748 14.587C23.5415 15.1123 23.3581 15.6167 23.1248 16.1Z" fill="#2192FF"/>
<path d="M4.912 27.424V33H4.184V30.472H1.344V33H0.616V27.424H1.344V29.872H4.184V27.424H4.912ZM6.53106 27.904C6.3924 27.904 6.27506 27.856 6.17906 27.76C6.08306 27.664 6.03506 27.5467 6.03506 27.408C6.03506 27.2693 6.08306 27.152 6.17906 27.056C6.27506 26.96 6.3924 26.912 6.53106 26.912C6.6644 26.912 6.7764 26.96 6.86706 27.056C6.96306 27.152 7.01106 27.2693 7.01106 27.408C7.01106 27.5467 6.96306 27.664 6.86706 27.76C6.7764 27.856 6.6644 27.904 6.53106 27.904ZM6.88306 28.616V33H6.15506V28.616H6.88306ZM9.67581 33.072C9.33981 33.072 9.03848 33.016 8.77181 32.904C8.50515 32.7867 8.29448 32.6267 8.13981 32.424C7.98515 32.216 7.89981 31.9787 7.88381 31.712H8.63581C8.65715 31.9307 8.75848 32.1093 8.93981 32.248C9.12648 32.3867 9.36915 32.456 9.66781 32.456C9.94515 32.456 10.1638 32.3947 10.3238 32.272C10.4838 32.1493 10.5638 31.9947 10.5638 31.808C10.5638 31.616 10.4785 31.4747 10.3078 31.384C10.1371 31.288 9.87315 31.1947 9.51581 31.104C9.19048 31.0187 8.92381 30.9333 8.71581 30.848C8.51315 30.7573 8.33715 30.6267 8.18781 30.456C8.04381 30.28 7.97181 30.0507 7.97181 29.768C7.97181 29.544 8.03848 29.3387 8.17181 29.152C8.30515 28.9653 8.49448 28.8187 8.73981 28.712C8.98515 28.6 9.26515 28.544 9.57981 28.544C10.0651 28.544 10.4571 28.6667 10.7558 28.912C11.0545 29.1573 11.2145 29.4933 11.2358 29.92H10.5078C10.4918 29.6907 10.3985 29.5067 10.2278 29.368C10.0625 29.2293 9.83848 29.16 9.55581 29.16C9.29448 29.16 9.08648 29.216 8.93181 29.328C8.77715 29.44 8.69981 29.5867 8.69981 29.768C8.69981 29.912 8.74515 30.032 8.83581 30.128C8.93181 30.2187 9.04915 30.2933 9.18781 30.352C9.33181 30.4053 9.52915 30.4667 9.77981 30.536C10.0945 30.6213 10.3505 30.7067 10.5478 30.792C10.7451 30.872 10.9131 30.9947 11.0518 31.16C11.1958 31.3253 11.2705 31.5413 11.2758 31.808C11.2758 32.048 11.2091 32.264 11.0758 32.456C10.9425 32.648 10.7531 32.8 10.5078 32.912C10.2678 33.0187 9.99048 33.072 9.67581 33.072ZM13.1915 29.216V31.8C13.1915 32.0133 13.2368 32.1653 13.3275 32.256C13.4182 32.3413 13.5755 32.384 13.7995 32.384H14.3355V33H13.6795C13.2742 33 12.9702 32.9067 12.7675 32.72C12.5648 32.5333 12.4635 32.2267 12.4635 31.8V29.216H11.8955V28.616H12.4635V27.512H13.1915V28.616H14.3355V29.216H13.1915ZM17.1296 33.072C16.7189 33.072 16.3456 32.9787 16.0096 32.792C15.6789 32.6053 15.4176 32.3413 15.2256 32C15.0389 31.6533 14.9456 31.2533 14.9456 30.8C14.9456 30.352 15.0416 29.9573 15.2336 29.616C15.4309 29.2693 15.6976 29.0053 16.0336 28.824C16.3696 28.6373 16.7456 28.544 17.1616 28.544C17.5776 28.544 17.9536 28.6373 18.2896 28.824C18.6256 29.0053 18.8896 29.2667 19.0816 29.608C19.2789 29.9493 19.3776 30.3467 19.3776 30.8C19.3776 31.2533 19.2762 31.6533 19.0736 32C18.8762 32.3413 18.6069 32.6053 18.2656 32.792C17.9242 32.9787 17.5456 33.072 17.1296 33.072ZM17.1296 32.432C17.3909 32.432 17.6362 32.3707 17.8656 32.248C18.0949 32.1253 18.2789 31.9413 18.4176 31.696C18.5616 31.4507 18.6336 31.152 18.6336 30.8C18.6336 30.448 18.5642 30.1493 18.4256 29.904C18.2869 29.6587 18.1056 29.4773 17.8816 29.36C17.6576 29.2373 17.4149 29.176 17.1536 29.176C16.8869 29.176 16.6416 29.2373 16.4176 29.36C16.1989 29.4773 16.0229 29.6587 15.8896 29.904C15.7562 30.1493 15.6896 30.448 15.6896 30.8C15.6896 31.1573 15.7536 31.4587 15.8816 31.704C16.0149 31.9493 16.1909 32.1333 16.4096 32.256C16.6282 32.3733 16.8682 32.432 17.1296 32.432ZM21.0628 29.328C21.1908 29.0773 21.3721 28.8827 21.6068 28.744C21.8468 28.6053 22.1374 28.536 22.4788 28.536V29.288H22.2868C21.4708 29.288 21.0628 29.7307 21.0628 30.616V33H20.3348V28.616H21.0628V29.328ZM27.0951 28.616L24.4551 35.064H23.7031L24.5671 32.952L22.7991 28.616H23.6071L24.9831 32.168L26.3431 28.616H27.0951Z" fill="#F5F5F5"/>
</svg>
