<svg width="28" height="34" viewBox="0 0 28 34" fill="none" xmlns="http://www.w3.org/2000/svg">
<path d="M17.3 14.7L13 10.4V4.99999H15V9.59999L18.7 13.3L17.3 14.7ZM4.84999 14.075C4.63332 13.5917 4.45832 13.0917 4.32499 12.575C4.19165 12.0583 4.09999 11.5333 4.04999 11H6.07499C6.12499 11.35 6.19565 11.7 6.28699 12.05C6.37899 12.4 6.49165 12.7417 6.62499 13.075L4.84999 14.075ZM4.04999 8.99999C4.09999 8.46665 4.19165 7.93732 4.32499 7.41199C4.45832 6.88732 4.64165 6.38332 4.87499 5.89999L6.62499 6.89999C6.49165 7.23332 6.37899 7.57499 6.28699 7.92499C6.19565 8.27499 6.12499 8.63332 6.07499 8.99999H4.04999ZM8.17499 18.15C7.72499 17.8167 7.30832 17.454 6.92499 17.062C6.54165 16.6707 6.18332 16.25 5.84999 15.8L7.59999 14.8C7.83332 15.1 8.07932 15.379 8.33799 15.637C8.59599 15.8957 8.87499 16.1417 9.17499 16.375L8.17499 18.15ZM7.62499 5.17499L5.84999 4.17499C6.18332 3.72499 6.54165 3.30832 6.92499 2.92499C7.30832 2.54165 7.72499 2.18332 8.17499 1.84999L9.17499 3.62499C8.89165 3.85832 8.62099 4.10399 8.36299 4.36199C8.10432 4.62065 7.85832 4.89165 7.62499 5.17499ZM13 19.95C12.4667 19.9 11.9377 19.8083 11.413 19.675C10.8877 19.5417 10.3833 19.3583 9.89999 19.125L10.9 17.375C11.2333 17.5083 11.575 17.6207 11.925 17.712C12.275 17.804 12.6333 17.875 13 17.925V19.95ZM10.9 2.62499L9.89999 0.874988C10.3833 0.641654 10.8877 0.458321 11.413 0.324988C11.9377 0.191655 12.4667 0.0999878 13 0.0499878V2.07499C12.6333 2.12499 12.275 2.19565 11.925 2.28699C11.575 2.37899 11.2333 2.49165 10.9 2.62499ZM15 19.95V17.925C15.3667 17.875 15.725 17.804 16.075 17.712C16.425 17.6207 16.7667 17.5083 17.1 17.375L18.1 19.125C17.6167 19.3583 17.1127 19.5417 16.588 19.675C16.0627 19.8083 15.5333 19.9 15 19.95ZM17.1 2.62499C16.7667 2.49165 16.425 2.37899 16.075 2.28699C15.725 2.19565 15.3667 2.12499 15 2.07499V0.0499878C15.5333 0.0999878 16.0627 0.191655 16.588 0.324988C17.1127 0.458321 17.6167 0.641654 18.1 0.874988L17.1 2.62499ZM19.825 18.15L18.825 16.375C19.1083 16.1417 19.3793 15.8957 19.638 15.637C19.896 15.379 20.1417 15.1083 20.375 14.825L22.15 15.825C21.8167 16.275 21.4583 16.6957 21.075 17.087C20.6917 17.479 20.275 17.8333 19.825 18.15ZM20.375 5.17499C20.1417 4.89165 19.896 4.62065 19.638 4.36199C19.3793 4.10399 19.1083 3.85832 18.825 3.62499L19.825 1.84999C20.275 2.16665 20.6917 2.51665 21.075 2.89999C21.4583 3.28332 21.8083 3.69999 22.125 4.14999L20.375 5.17499ZM21.925 8.99999C21.875 8.63332 21.8043 8.27499 21.713 7.92499C21.621 7.57499 21.5083 7.23332 21.375 6.89999L23.125 5.87499C23.3417 6.37499 23.521 6.88732 23.663 7.41199C23.8043 7.93732 23.9 8.46665 23.95 8.99999H21.925ZM23.125 14.1L21.375 13.1C21.5083 12.7667 21.621 12.425 21.713 12.075C21.8043 11.725 21.875 11.3667 21.925 11H23.95C23.9 11.5333 23.8083 12.0623 23.675 12.587C23.5417 13.1123 23.3583 13.6167 23.125 14.1Z" fill="#F5F5F5"/>
<path d="M4.912 25.424V31H4.184V28.472H1.344V31H0.616V25.424H1.344V27.872H4.184V25.424H4.912ZM6.53106 25.904C6.3924 25.904 6.27506 25.856 6.17906 25.76C6.08306 25.664 6.03506 25.5467 6.03506 25.408C6.03506 25.2693 6.08306 25.152 6.17906 25.056C6.27506 24.96 6.3924 24.912 6.53106 24.912C6.6644 24.912 6.7764 24.96 6.86706 25.056C6.96306 25.152 7.01106 25.2693 7.01106 25.408C7.01106 25.5467 6.96306 25.664 6.86706 25.76C6.7764 25.856 6.6644 25.904 6.53106 25.904ZM6.88306 26.616V31H6.15506V26.616H6.88306ZM9.67581 31.072C9.33981 31.072 9.03848 31.016 8.77181 30.904C8.50515 30.7867 8.29448 30.6267 8.13981 30.424C7.98515 30.216 7.89981 29.9787 7.88381 29.712H8.63581C8.65715 29.9307 8.75848 30.1093 8.93981 30.248C9.12648 30.3867 9.36915 30.456 9.66781 30.456C9.94515 30.456 10.1638 30.3947 10.3238 30.272C10.4838 30.1493 10.5638 29.9947 10.5638 29.808C10.5638 29.616 10.4785 29.4747 10.3078 29.384C10.1371 29.288 9.87315 29.1947 9.51581 29.104C9.19048 29.0187 8.92381 28.9333 8.71581 28.848C8.51315 28.7573 8.33715 28.6267 8.18781 28.456C8.04381 28.28 7.97181 28.0507 7.97181 27.768C7.97181 27.544 8.03848 27.3387 8.17181 27.152C8.30515 26.9653 8.49448 26.8187 8.73981 26.712C8.98515 26.6 9.26515 26.544 9.57981 26.544C10.0651 26.544 10.4571 26.6667 10.7558 26.912C11.0545 27.1573 11.2145 27.4933 11.2358 27.92H10.5078C10.4918 27.6907 10.3985 27.5067 10.2278 27.368C10.0625 27.2293 9.83848 27.16 9.55581 27.16C9.29448 27.16 9.08648 27.216 8.93181 27.328C8.77715 27.44 8.69981 27.5867 8.69981 27.768C8.69981 27.912 8.74515 28.032 8.83581 28.128C8.93181 28.2187 9.04915 28.2933 9.18781 28.352C9.33181 28.4053 9.52915 28.4667 9.77981 28.536C10.0945 28.6213 10.3505 28.7067 10.5478 28.792C10.7451 28.872 10.9131 28.9947 11.0518 29.16C11.1958 29.3253 11.2705 29.5413 11.2758 29.808C11.2758 30.048 11.2091 30.264 11.0758 30.456C10.9425 30.648 10.7531 30.8 10.5078 30.912C10.2678 31.0187 9.99048 31.072 9.67581 31.072ZM13.1915 27.216V29.8C13.1915 30.0133 13.2368 30.1653 13.3275 30.256C13.4182 30.3413 13.5755 30.384 13.7995 30.384H14.3355V31H13.6795C13.2742 31 12.9702 30.9067 12.7675 30.72C12.5648 30.5333 12.4635 30.2267 12.4635 29.8V27.216H11.8955V26.616H12.4635V25.512H13.1915V26.616H14.3355V27.216H13.1915ZM17.1296 31.072C16.7189 31.072 16.3456 30.9787 16.0096 30.792C15.6789 30.6053 15.4176 30.3413 15.2256 30C15.0389 29.6533 14.9456 29.2533 14.9456 28.8C14.9456 28.352 15.0416 27.9573 15.2336 27.616C15.4309 27.2693 15.6976 27.0053 16.0336 26.824C16.3696 26.6373 16.7456 26.544 17.1616 26.544C17.5776 26.544 17.9536 26.6373 18.2896 26.824C18.6256 27.0053 18.8896 27.2667 19.0816 27.608C19.2789 27.9493 19.3776 28.3467 19.3776 28.8C19.3776 29.2533 19.2762 29.6533 19.0736 30C18.8762 30.3413 18.6069 30.6053 18.2656 30.792C17.9242 30.9787 17.5456 31.072 17.1296 31.072ZM17.1296 30.432C17.3909 30.432 17.6362 30.3707 17.8656 30.248C18.0949 30.1253 18.2789 29.9413 18.4176 29.696C18.5616 29.4507 18.6336 29.152 18.6336 28.8C18.6336 28.448 18.5642 28.1493 18.4256 27.904C18.2869 27.6587 18.1056 27.4773 17.8816 27.36C17.6576 27.2373 17.4149 27.176 17.1536 27.176C16.8869 27.176 16.6416 27.2373 16.4176 27.36C16.1989 27.4773 16.0229 27.6587 15.8896 27.904C15.7562 28.1493 15.6896 28.448 15.6896 28.8C15.6896 29.1573 15.7536 29.4587 15.8816 29.704C16.0149 29.9493 16.1909 30.1333 16.4096 30.256C16.6282 30.3733 16.8682 30.432 17.1296 30.432ZM21.0628 27.328C21.1908 27.0773 21.3721 26.8827 21.6068 26.744C21.8468 26.6053 22.1374 26.536 22.4788 26.536V27.288H22.2868C21.4708 27.288 21.0628 27.7307 21.0628 28.616V31H20.3348V26.616H21.0628V27.328ZM27.0951 26.616L24.4551 33.064H23.7031L24.5671 30.952L22.7991 26.616H23.6071L24.9831 30.168L26.3431 26.616H27.0951Z" fill="#F5F5F5"/>
</svg>
