<svg width="30" height="36" viewBox="0 0 30 36" fill="none" xmlns="http://www.w3.org/2000/svg">
<path d="M15 13C14.7167 13 14.4793 12.904 14.288 12.712C14.096 12.5207 14 12.2833 14 12V4C14 3.71667 14.096 3.479 14.288 3.287C14.4793 3.09567 14.7167 3 15 3C15.2833 3 15.521 3.09567 15.713 3.287C15.9043 3.479 16 3.71667 16 4V12C16 12.2833 15.9043 12.5207 15.713 12.712C15.521 12.904 15.2833 13 15 13ZM15 21C13.75 21 12.5793 20.7627 11.488 20.288C10.396 19.8127 9.446 19.1707 8.638 18.362C7.82933 17.554 7.18733 16.604 6.712 15.512C6.23733 14.4207 6 13.25 6 12C6 10.85 6.20833 9.75 6.625 8.7C7.04167 7.65 7.64167 6.7 8.425 5.85C8.60833 5.65 8.84167 5.55 9.125 5.55C9.40833 5.55 9.65 5.65 9.85 5.85C10.0333 6.03333 10.1167 6.26233 10.1 6.537C10.0833 6.81233 9.98333 7.05833 9.8 7.275C9.21667 7.925 8.771 8.654 8.463 9.462C8.15433 10.2707 8 11.1167 8 12C8 13.95 8.67933 15.604 10.038 16.962C11.396 18.3207 13.05 19 15 19C16.95 19 18.604 18.3207 19.962 16.962C21.3207 15.604 22 13.95 22 12C22 11.1167 21.8417 10.2627 21.525 9.438C21.2083 8.61267 20.7583 7.875 20.175 7.225C19.9917 7.025 19.896 6.79167 19.888 6.525C19.8793 6.25833 19.9667 6.03333 20.15 5.85C20.35 5.65 20.5917 5.55 20.875 5.55C21.1583 5.55 21.3917 5.65 21.575 5.85C22.3583 6.7 22.9583 7.65 23.375 8.7C23.7917 9.75 24 10.85 24 12C24 13.25 23.7627 14.4207 23.288 15.512C22.8127 16.604 22.171 17.554 21.363 18.362C20.5543 19.1707 19.6043 19.8127 18.513 20.288C17.421 20.7627 16.25 21 15 21Z" fill="#F5F5F5"/>
<path d="M1.344 32.408H3.296V33H0.616V27.424H1.344V32.408ZM5.98113 33.072C5.57046 33.072 5.19713 32.9787 4.86113 32.792C4.53046 32.6053 4.26913 32.3413 4.07713 32C3.89046 31.6533 3.79713 31.2533 3.79713 30.8C3.79713 30.352 3.89313 29.9573 4.08513 29.616C4.28246 29.2693 4.54913 29.0053 4.88513 28.824C5.22113 28.6373 5.59713 28.544 6.01313 28.544C6.42913 28.544 6.80513 28.6373 7.14113 28.824C7.47713 29.0053 7.74113 29.2667 7.93313 29.608C8.13046 29.9493 8.22913 30.3467 8.22913 30.8C8.22913 31.2533 8.12779 31.6533 7.92513 32C7.72779 32.3413 7.45846 32.6053 7.11713 32.792C6.77579 32.9787 6.39713 33.072 5.98113 33.072ZM5.98113 32.432C6.24246 32.432 6.48779 32.3707 6.71713 32.248C6.94646 32.1253 7.13046 31.9413 7.26913 31.696C7.41313 31.4507 7.48513 31.152 7.48513 30.8C7.48513 30.448 7.41579 30.1493 7.27713 29.904C7.13846 29.6587 6.95713 29.4773 6.73313 29.36C6.50913 29.2373 6.26646 29.176 6.00513 29.176C5.73846 29.176 5.49313 29.2373 5.26913 29.36C5.05046 29.4773 4.87446 29.6587 4.74113 29.904C4.60779 30.1493 4.54113 30.448 4.54113 30.8C4.54113 31.1573 4.60513 31.4587 4.73313 31.704C4.86646 31.9493 5.04246 32.1333 5.26113 32.256C5.47979 32.3733 5.71979 32.432 5.98113 32.432ZM10.9943 28.544C11.373 28.544 11.7036 28.6267 11.9863 28.792C12.2743 28.9573 12.4876 29.1653 12.6263 29.416V28.616H13.3623V33.096C13.3623 33.496 13.277 33.8507 13.1063 34.16C12.9356 34.4747 12.6903 34.72 12.3703 34.896C12.0556 35.072 11.6876 35.16 11.2663 35.16C10.6903 35.16 10.2103 35.024 9.82631 34.752C9.44231 34.48 9.21565 34.1093 9.14631 33.64H9.86631C9.94631 33.9067 10.1116 34.12 10.3623 34.28C10.613 34.4453 10.9143 34.528 11.2663 34.528C11.6663 34.528 11.9916 34.4027 12.2423 34.152C12.4983 33.9013 12.6263 33.5493 12.6263 33.096V32.176C12.4823 32.432 12.269 32.6453 11.9863 32.816C11.7036 32.9867 11.373 33.072 10.9943 33.072C10.605 33.072 10.2503 32.976 9.93031 32.784C9.61565 32.592 9.36765 32.3227 9.18631 31.976C9.00498 31.6293 8.91431 31.2347 8.91431 30.792C8.91431 30.344 9.00498 29.952 9.18631 29.616C9.36765 29.2747 9.61565 29.0107 9.93031 28.824C10.2503 28.6373 10.605 28.544 10.9943 28.544ZM12.6263 30.8C12.6263 30.4693 12.5596 30.1813 12.4263 29.936C12.293 29.6907 12.1116 29.504 11.8823 29.376C11.6583 29.2427 11.4103 29.176 11.1383 29.176C10.8663 29.176 10.6183 29.24 10.3943 29.368C10.1703 29.496 9.99165 29.6827 9.85831 29.928C9.72498 30.1733 9.65831 30.4613 9.65831 30.792C9.65831 31.128 9.72498 31.4213 9.85831 31.672C9.99165 31.9173 10.1703 32.1067 10.3943 32.24C10.6183 32.368 10.8663 32.432 11.1383 32.432C11.4103 32.432 11.6583 32.368 11.8823 32.24C12.1116 32.1067 12.293 31.9173 12.4263 31.672C12.5596 31.4213 12.6263 31.1307 12.6263 30.8ZM18.6374 33.072C18.2267 33.072 17.8534 32.9787 17.5174 32.792C17.1867 32.6053 16.9254 32.3413 16.7334 32C16.5467 31.6533 16.4534 31.2533 16.4534 30.8C16.4534 30.352 16.5494 29.9573 16.7414 29.616C16.9387 29.2693 17.2054 29.0053 17.5414 28.824C17.8774 28.6373 18.2534 28.544 18.6694 28.544C19.0854 28.544 19.4614 28.6373 19.7974 28.824C20.1334 29.0053 20.3974 29.2667 20.5894 29.608C20.7867 29.9493 20.8854 30.3467 20.8854 30.8C20.8854 31.2533 20.784 31.6533 20.5814 32C20.384 32.3413 20.1147 32.6053 19.7734 32.792C19.432 32.9787 19.0534 33.072 18.6374 33.072ZM18.6374 32.432C18.8987 32.432 19.144 32.3707 19.3734 32.248C19.6027 32.1253 19.7867 31.9413 19.9254 31.696C20.0694 31.4507 20.1414 31.152 20.1414 30.8C20.1414 30.448 20.072 30.1493 19.9334 29.904C19.7947 29.6587 19.6134 29.4773 19.3894 29.36C19.1654 29.2373 18.9227 29.176 18.6614 29.176C18.3947 29.176 18.1494 29.2373 17.9254 29.36C17.7067 29.4773 17.5307 29.6587 17.3974 29.904C17.264 30.1493 17.1974 30.448 17.1974 30.8C17.1974 31.1573 17.2614 31.4587 17.3894 31.704C17.5227 31.9493 17.6987 32.1333 17.9174 32.256C18.136 32.3733 18.376 32.432 18.6374 32.432ZM25.7306 28.616V33H25.0026V32.352C24.8639 32.576 24.6692 32.752 24.4186 32.88C24.1732 33.0027 23.9012 33.064 23.6026 33.064C23.2612 33.064 22.9546 32.9947 22.6826 32.856C22.4106 32.712 22.1946 32.4987 22.0346 32.216C21.8799 31.9333 21.8026 31.5893 21.8026 31.184V28.616H22.5226V31.088C22.5226 31.52 22.6319 31.8533 22.8506 32.088C23.0692 32.3173 23.3679 32.432 23.7466 32.432C24.1359 32.432 24.4426 32.312 24.6666 32.072C24.8906 31.832 25.0026 31.4827 25.0026 31.024V28.616H25.7306ZM27.8478 29.216V31.8C27.8478 32.0133 27.8931 32.1653 27.9838 32.256C28.0744 32.3413 28.2318 32.384 28.4557 32.384H28.9918V33H28.3358C27.9304 33 27.6264 32.9067 27.4238 32.72C27.2211 32.5333 27.1198 32.2267 27.1198 31.8V29.216H26.5518V28.616H27.1198V27.512H27.8478V28.616H28.9918V29.216H27.8478Z" fill="#F5F5F5"/>
</svg>
