<svg width="24" height="36" viewBox="0 0 24 36" fill="none" xmlns="http://www.w3.org/2000/svg">
<path d="M4.144 33.056C3.62667 33.056 3.15467 32.936 2.728 32.696C2.30133 32.4507 1.96267 32.112 1.712 31.68C1.46667 31.2427 1.344 30.752 1.344 30.208C1.344 29.664 1.46667 29.176 1.712 28.744C1.96267 28.3067 2.30133 27.968 2.728 27.728C3.15467 27.4827 3.62667 27.36 4.144 27.36C4.66667 27.36 5.14133 27.4827 5.568 27.728C5.99467 27.968 6.33067 28.304 6.576 28.736C6.82133 29.168 6.944 29.6587 6.944 30.208C6.944 30.7573 6.82133 31.248 6.576 31.68C6.33067 32.112 5.99467 32.4507 5.568 32.696C5.14133 32.936 4.66667 33.056 4.144 33.056ZM4.144 32.424C4.53333 32.424 4.88267 32.3333 5.192 32.152C5.50667 31.9707 5.752 31.712 5.928 31.376C6.10933 31.04 6.2 30.6507 6.2 30.208C6.2 29.76 6.10933 29.3707 5.928 29.04C5.752 28.704 5.50933 28.4453 5.2 28.264C4.89067 28.0827 4.53867 27.992 4.144 27.992C3.74933 27.992 3.39733 28.0827 3.088 28.264C2.77867 28.4453 2.53333 28.704 2.352 29.04C2.176 29.3707 2.088 29.76 2.088 30.208C2.088 30.6507 2.176 31.04 2.352 31.376C2.53333 31.712 2.77867 31.9707 3.088 32.152C3.40267 32.3333 3.75467 32.424 4.144 32.424ZM8.63306 29.328C8.76106 29.0773 8.9424 28.8827 9.17706 28.744C9.41706 28.6053 9.70773 28.536 10.0491 28.536V29.288H9.85706C9.04106 29.288 8.63306 29.7307 8.63306 30.616V33H7.90506V28.616H8.63306V29.328ZM10.6174 30.792C10.6174 30.344 10.7081 29.952 10.8894 29.616C11.0708 29.2747 11.3188 29.0107 11.6334 28.824C11.9534 28.6373 12.3108 28.544 12.7054 28.544C13.0468 28.544 13.3641 28.624 13.6574 28.784C13.9508 28.9387 14.1748 29.144 14.3294 29.4V27.08H15.0654V33H14.3294V32.176C14.1854 32.4373 13.9721 32.6533 13.6894 32.824C13.4068 32.9893 13.0761 33.072 12.6974 33.072C12.3081 33.072 11.9534 32.976 11.6334 32.784C11.3188 32.592 11.0708 32.3227 10.8894 31.976C10.7081 31.6293 10.6174 31.2347 10.6174 30.792ZM14.3294 30.8C14.3294 30.4693 14.2628 30.1813 14.1294 29.936C13.9961 29.6907 13.8148 29.504 13.5854 29.376C13.3614 29.2427 13.1134 29.176 12.8414 29.176C12.5694 29.176 12.3214 29.24 12.0974 29.368C11.8734 29.496 11.6948 29.6827 11.5614 29.928C11.4281 30.1733 11.3614 30.4613 11.3614 30.792C11.3614 31.128 11.4281 31.4213 11.5614 31.672C11.6948 31.9173 11.8734 32.1067 12.0974 32.24C12.3214 32.368 12.5694 32.432 12.8414 32.432C13.1134 32.432 13.3614 32.368 13.5854 32.24C13.8148 32.1067 13.9961 31.9173 14.1294 31.672C14.2628 31.4213 14.3294 31.1307 14.3294 30.8ZM20.2957 30.64C20.2957 30.7787 20.2877 30.9253 20.2717 31.08H16.7677C16.7944 31.512 16.941 31.8507 17.2077 32.096C17.4797 32.336 17.8077 32.456 18.1917 32.456C18.5064 32.456 18.7677 32.384 18.9757 32.24C19.189 32.0907 19.3384 31.8933 19.4237 31.648H20.2077C20.0904 32.0693 19.8557 32.4133 19.5037 32.68C19.1517 32.9413 18.7144 33.072 18.1917 33.072C17.7757 33.072 17.4024 32.9787 17.0717 32.792C16.7464 32.6053 16.4904 32.3413 16.3037 32C16.117 31.6533 16.0237 31.2533 16.0237 30.8C16.0237 30.3467 16.1144 29.9493 16.2957 29.608C16.477 29.2667 16.7304 29.0053 17.0557 28.824C17.3864 28.6373 17.765 28.544 18.1917 28.544C18.6077 28.544 18.9757 28.6347 19.2957 28.816C19.6157 28.9973 19.861 29.248 20.0317 29.568C20.2077 29.8827 20.2957 30.24 20.2957 30.64ZM19.5437 30.488C19.5437 30.2107 19.4824 29.9733 19.3597 29.776C19.237 29.5733 19.069 29.4213 18.8557 29.32C18.6477 29.2133 18.4157 29.16 18.1597 29.16C17.7917 29.16 17.477 29.2773 17.2157 29.512C16.9597 29.7467 16.813 30.072 16.7757 30.488H19.5437ZM21.9846 29.328C22.1126 29.0773 22.294 28.8827 22.5286 28.744C22.7686 28.6053 23.0593 28.536 23.4006 28.536V29.288H23.2086C22.3926 29.288 21.9846 29.7307 21.9846 30.616V33H21.2566V28.616H21.9846V29.328Z" fill="#F5F5F5"/>
<path d="M14.25 15.75H9.75C9.15326 15.75 8.58097 15.9871 8.15901 16.409C7.73705 16.831 7.5 17.4033 7.5 18V19.5H9V18C9 17.8011 9.07902 17.6103 9.21967 17.4697C9.36032 17.329 9.55109 17.25 9.75 17.25H14.25C14.4489 17.25 14.6397 17.329 14.7803 17.4697C14.921 17.6103 15 17.8011 15 18V19.5H16.5V18C16.5 17.4033 16.2629 16.831 15.841 16.409C15.419 15.9871 14.8467 15.75 14.25 15.75ZM12 15C12.5933 15 13.1734 14.8241 13.6667 14.4944C14.1601 14.1648 14.5446 13.6962 14.7716 13.1481C14.9987 12.5999 15.0581 11.9967 14.9424 11.4147C14.8266 10.8328 14.5409 10.2982 14.1213 9.87868C13.7018 9.45912 13.1672 9.1734 12.5853 9.05765C12.0033 8.94189 11.4001 9.0013 10.8519 9.22836C10.3038 9.45543 9.83524 9.83994 9.50559 10.3333C9.17595 10.8266 9 11.4067 9 12C9 12.7957 9.31607 13.5587 9.87868 14.1213C10.4413 14.6839 11.2044 15 12 15ZM12 10.5C12.2967 10.5 12.5867 10.588 12.8334 10.7528C13.08 10.9176 13.2723 11.1519 13.3858 11.426C13.4994 11.7001 13.5291 12.0017 13.4712 12.2926C13.4133 12.5836 13.2704 12.8509 13.0607 13.0607C12.8509 13.2704 12.5836 13.4133 12.2926 13.4712C12.0017 13.5291 11.7001 13.4994 11.426 13.3858C11.1519 13.2723 10.9176 13.08 10.7528 12.8334C10.588 12.5867 10.5 12.2967 10.5 12C10.5 11.6022 10.658 11.2206 10.9393 10.9393C11.2206 10.658 11.6022 10.5 12 10.5V10.5Z" fill="#F5F5F5"/>
<path d="M18.75 3.75H16.5V3C16.5 2.60218 16.342 2.22064 16.0607 1.93934C15.7794 1.65804 15.3978 1.5 15 1.5H9C8.60218 1.5 8.22064 1.65804 7.93934 1.93934C7.65804 2.22064 7.5 2.60218 7.5 3V3.75H5.25C4.85218 3.75 4.47064 3.90804 4.18934 4.18934C3.90804 4.47064 3.75 4.85218 3.75 5.25V21C3.75 21.3978 3.90804 21.7794 4.18934 22.0607C4.47064 22.342 4.85218 22.5 5.25 22.5H18.75C19.1478 22.5 19.5294 22.342 19.8107 22.0607C20.092 21.7794 20.25 21.3978 20.25 21V5.25C20.25 4.85218 20.092 4.47064 19.8107 4.18934C19.5294 3.90804 19.1478 3.75 18.75 3.75ZM9 3H15V6H9V3ZM18.75 21H5.25V5.25H7.5V7.5H16.5V5.25H18.75V21Z" fill="#F5F5F5"/>
</svg>
