<svg width="24" height="36" viewBox="0 0 24 36" fill="none" xmlns="http://www.w3.org/2000/svg">
<path d="M4.144 33.056C3.62667 33.056 3.15467 32.936 2.728 32.696C2.30133 32.4507 1.96267 32.112 1.712 31.68C1.46667 31.2427 1.344 30.752 1.344 30.208C1.344 29.664 1.46667 29.176 1.712 28.744C1.96267 28.3067 2.30133 27.968 2.728 27.728C3.15467 27.4827 3.62667 27.36 4.144 27.36C4.66667 27.36 5.14133 27.4827 5.568 27.728C5.99467 27.968 6.33067 28.304 6.576 28.736C6.82133 29.168 6.944 29.6587 6.944 30.208C6.944 30.7573 6.82133 31.248 6.576 31.68C6.33067 32.112 5.99467 32.4507 5.568 32.696C5.14133 32.936 4.66667 33.056 4.144 33.056ZM4.144 32.424C4.53333 32.424 4.88267 32.3333 5.192 32.152C5.50667 31.9707 5.752 31.712 5.928 31.376C6.10933 31.04 6.2 30.6507 6.2 30.208C6.2 29.76 6.10933 29.3707 5.928 29.04C5.752 28.704 5.50933 28.4453 5.2 28.264C4.89067 28.0827 4.53867 27.992 4.144 27.992C3.74933 27.992 3.39733 28.0827 3.088 28.264C2.77867 28.4453 2.53333 28.704 2.352 29.04C2.176 29.3707 2.088 29.76 2.088 30.208C2.088 30.6507 2.176 31.04 2.352 31.376C2.53333 31.712 2.77867 31.9707 3.088 32.152C3.40267 32.3333 3.75467 32.424 4.144 32.424ZM8.63306 29.328C8.76106 29.0773 8.9424 28.8827 9.17706 28.744C9.41706 28.6053 9.70773 28.536 10.0491 28.536V29.288H9.85706C9.04106 29.288 8.63306 29.7307 8.63306 30.616V33H7.90506V28.616H8.63306V29.328ZM10.6174 30.792C10.6174 30.344 10.7081 29.952 10.8894 29.616C11.0708 29.2747 11.3188 29.0107 11.6334 28.824C11.9534 28.6373 12.3108 28.544 12.7054 28.544C13.0468 28.544 13.3641 28.624 13.6574 28.784C13.9508 28.9387 14.1748 29.144 14.3294 29.4V27.08H15.0654V33H14.3294V32.176C14.1854 32.4373 13.9721 32.6533 13.6894 32.824C13.4068 32.9893 13.0761 33.072 12.6974 33.072C12.3081 33.072 11.9534 32.976 11.6334 32.784C11.3188 32.592 11.0708 32.3227 10.8894 31.976C10.7081 31.6293 10.6174 31.2347 10.6174 30.792ZM14.3294 30.8C14.3294 30.4693 14.2628 30.1813 14.1294 29.936C13.9961 29.6907 13.8148 29.504 13.5854 29.376C13.3614 29.2427 13.1134 29.176 12.8414 29.176C12.5694 29.176 12.3214 29.24 12.0974 29.368C11.8734 29.496 11.6948 29.6827 11.5614 29.928C11.4281 30.1733 11.3614 30.4613 11.3614 30.792C11.3614 31.128 11.4281 31.4213 11.5614 31.672C11.6948 31.9173 11.8734 32.1067 12.0974 32.24C12.3214 32.368 12.5694 32.432 12.8414 32.432C13.1134 32.432 13.3614 32.368 13.5854 32.24C13.8148 32.1067 13.9961 31.9173 14.1294 31.672C14.2628 31.4213 14.3294 31.1307 14.3294 30.8ZM20.2957 30.64C20.2957 30.7787 20.2877 30.9253 20.2717 31.08H16.7677C16.7944 31.512 16.941 31.8507 17.2077 32.096C17.4797 32.336 17.8077 32.456 18.1917 32.456C18.5064 32.456 18.7677 32.384 18.9757 32.24C19.189 32.0907 19.3384 31.8933 19.4237 31.648H20.2077C20.0904 32.0693 19.8557 32.4133 19.5037 32.68C19.1517 32.9413 18.7144 33.072 18.1917 33.072C17.7757 33.072 17.4024 32.9787 17.0717 32.792C16.7464 32.6053 16.4904 32.3413 16.3037 32C16.117 31.6533 16.0237 31.2533 16.0237 30.8C16.0237 30.3467 16.1144 29.9493 16.2957 29.608C16.477 29.2667 16.7304 29.0053 17.0557 28.824C17.3864 28.6373 17.765 28.544 18.1917 28.544C18.6077 28.544 18.9757 28.6347 19.2957 28.816C19.6157 28.9973 19.861 29.248 20.0317 29.568C20.2077 29.8827 20.2957 30.24 20.2957 30.64ZM19.5437 30.488C19.5437 30.2107 19.4824 29.9733 19.3597 29.776C19.237 29.5733 19.069 29.4213 18.8557 29.32C18.6477 29.2133 18.4157 29.16 18.1597 29.16C17.7917 29.16 17.477 29.2773 17.2157 29.512C16.9597 29.7467 16.813 30.072 16.7757 30.488H19.5437ZM21.9846 29.328C22.1126 29.0773 22.294 28.8827 22.5286 28.744C22.7686 28.6053 23.0593 28.536 23.4006 28.536V29.288H23.2086C22.3926 29.288 21.9846 29.7307 21.9846 30.616V33H21.2566V28.616H21.9846V29.328Z" fill="#F5F5F5"/>
<path d="M16.9164 4H19.4688C20.0383 4 20.5 4.44771 20.5 5V21.5C20.5 22.0523 20.0383 22.5 19.4688 22.5H5.03125C4.46171 22.5 4 22.0523 4 21.5V5C4 4.44771 4.46171 4 5.03125 4H8.125H8.64062V5.5H15.8594V4H16.9164Z" fill="#F5F5F5" stroke="#F5F5F5" stroke-width="1.5" stroke-linejoin="round"/>
<path d="M16 1H9V5H16V1Z" fill="#2192FF" stroke="#2192FF" stroke-width="1.5" stroke-linecap="round" stroke-linejoin="round"/>
<path d="M14.75 14.75H10.25C9.65326 14.75 9.08097 14.9871 8.65901 15.409C8.23705 15.831 8 16.4033 8 17V18.5H9.5V17C9.5 16.8011 9.57902 16.6103 9.71967 16.4697C9.86032 16.329 10.0511 16.25 10.25 16.25H14.75C14.9489 16.25 15.1397 16.329 15.2803 16.4697C15.421 16.6103 15.5 16.8011 15.5 17V18.5H17V17C17 16.4033 16.7629 15.831 16.341 15.409C15.919 14.9871 15.3467 14.75 14.75 14.75ZM12.5 14C13.0933 14 13.6734 13.8241 14.1667 13.4944C14.6601 13.1648 15.0446 12.6962 15.2716 12.1481C15.4987 11.5999 15.5581 10.9967 15.4424 10.4147C15.3266 9.83279 15.0409 9.29824 14.6213 8.87868C14.2018 8.45912 13.6672 8.1734 13.0853 8.05765C12.5033 7.94189 11.9001 8.0013 11.3519 8.22836C10.8038 8.45543 10.3352 8.83994 10.0056 9.33329C9.67595 9.82664 9.5 10.4067 9.5 11C9.5 11.7957 9.81607 12.5587 10.3787 13.1213C10.9413 13.6839 11.7044 14 12.5 14ZM12.5 9.5C12.7967 9.5 13.0867 9.58798 13.3334 9.7528C13.58 9.91762 13.7723 10.1519 13.8858 10.426C13.9994 10.7001 14.0291 11.0017 13.9712 11.2926C13.9133 11.5836 13.7704 11.8509 13.5607 12.0607C13.3509 12.2704 13.0836 12.4133 12.7926 12.4712C12.5017 12.5291 12.2001 12.4994 11.926 12.3858C11.6519 12.2723 11.4176 12.08 11.2528 11.8334C11.088 11.5867 11 11.2967 11 11C11 10.6022 11.158 10.2206 11.4393 9.93934C11.7206 9.65804 12.1022 9.5 12.5 9.5V9.5Z" fill="#2192FF"/>
</svg>
