<svg width="33" height="36" viewBox="0 0 33 36" fill="none" xmlns="http://www.w3.org/2000/svg">
<g clip-path="url(#clip0_113_21)">
<path d="M16 15C17.6569 15 19 13.6569 19 12C19 10.3431 17.6569 9 16 9C14.3431 9 13 10.3431 13 12C13 13.6569 14.3431 15 16 15Z" stroke="#F5F5F5" stroke-width="2" stroke-linecap="round" stroke-linejoin="round"/>
<path d="M23.4 15C23.2669 15.3016 23.2272 15.6362 23.286 15.9606C23.3448 16.285 23.4995 16.5843 23.73 16.82L23.79 16.88C23.976 17.0657 24.1235 17.2863 24.2241 17.5291C24.3248 17.7719 24.3766 18.0322 24.3766 18.295C24.3766 18.5578 24.3248 18.8181 24.2241 19.0609C24.1235 19.3037 23.976 19.5243 23.79 19.71C23.6043 19.896 23.3837 20.0435 23.1409 20.1441C22.8981 20.2448 22.6378 20.2966 22.375 20.2966C22.1122 20.2966 21.8519 20.2448 21.6091 20.1441C21.3663 20.0435 21.1457 19.896 20.96 19.71L20.9 19.65C20.6643 19.4195 20.365 19.2648 20.0406 19.206C19.7162 19.1472 19.3816 19.1869 19.08 19.32C18.7842 19.4468 18.532 19.6572 18.3543 19.9255C18.1766 20.1938 18.0813 20.5082 18.08 20.83V21C18.08 21.5304 17.8693 22.0391 17.4942 22.4142C17.1191 22.7893 16.6104 23 16.08 23C15.5496 23 15.0409 22.7893 14.6658 22.4142C14.2907 22.0391 14.08 21.5304 14.08 21V20.91C14.0723 20.579 13.9651 20.258 13.7725 19.9887C13.5799 19.7194 13.3107 19.5143 13 19.4C12.6984 19.2669 12.3638 19.2272 12.0394 19.286C11.715 19.3448 11.4157 19.4995 11.18 19.73L11.12 19.79C10.9343 19.976 10.7137 20.1235 10.4709 20.2241C10.2281 20.3248 9.96783 20.3766 9.705 20.3766C9.44217 20.3766 9.18192 20.3248 8.93912 20.2241C8.69632 20.1235 8.47575 19.976 8.29 19.79C8.10405 19.6043 7.95653 19.3837 7.85588 19.1409C7.75523 18.8981 7.70343 18.6378 7.70343 18.375C7.70343 18.1122 7.75523 17.8519 7.85588 17.6091C7.95653 17.3663 8.10405 17.1457 8.29 16.96L8.35 16.9C8.58054 16.6643 8.73519 16.365 8.794 16.0406C8.85282 15.7162 8.81312 15.3816 8.68 15.08C8.55324 14.7842 8.34276 14.532 8.07447 14.3543C7.80618 14.1766 7.49179 14.0813 7.17 14.08H7C6.46957 14.08 5.96086 13.8693 5.58579 13.4942C5.21071 13.1191 5 12.6104 5 12.08C5 11.5496 5.21071 11.0409 5.58579 10.6658C5.96086 10.2907 6.46957 10.08 7 10.08H7.09C7.42099 10.0723 7.742 9.96512 8.0113 9.77251C8.28059 9.5799 8.48572 9.31074 8.6 9C8.73312 8.69838 8.77282 8.36381 8.714 8.03941C8.65519 7.71502 8.50054 7.41568 8.27 7.18L8.21 7.12C8.02405 6.93425 7.87653 6.71368 7.77588 6.47088C7.67523 6.22808 7.62343 5.96783 7.62343 5.705C7.62343 5.44217 7.67523 5.18192 7.77588 4.93912C7.87653 4.69632 8.02405 4.47575 8.21 4.29C8.39575 4.10405 8.61632 3.95653 8.85912 3.85588C9.10192 3.75523 9.36217 3.70343 9.625 3.70343C9.88783 3.70343 10.1481 3.75523 10.3909 3.85588C10.6337 3.95653 10.8543 4.10405 11.04 4.29L11.1 4.35C11.3357 4.58054 11.635 4.73519 11.9594 4.794C12.2838 4.85282 12.6184 4.81312 12.92 4.68H13C13.2958 4.55324 13.548 4.34276 13.7257 4.07447C13.9034 3.80618 13.9987 3.49179 14 3.17V3C14 2.46957 14.2107 1.96086 14.5858 1.58579C14.9609 1.21071 15.4696 1 16 1C16.5304 1 17.0391 1.21071 17.4142 1.58579C17.7893 1.96086 18 2.46957 18 3V3.09C18.0013 3.41179 18.0966 3.72618 18.2743 3.99447C18.452 4.26276 18.7042 4.47324 19 4.6C19.3016 4.73312 19.6362 4.77282 19.9606 4.714C20.285 4.65519 20.5843 4.50054 20.82 4.27L20.88 4.21C21.0657 4.02405 21.2863 3.87653 21.5291 3.77588C21.7719 3.67523 22.0322 3.62343 22.295 3.62343C22.5578 3.62343 22.8181 3.67523 23.0609 3.77588C23.3037 3.87653 23.5243 4.02405 23.71 4.21C23.896 4.39575 24.0435 4.61632 24.1441 4.85912C24.2448 5.10192 24.2966 5.36217 24.2966 5.625C24.2966 5.88783 24.2448 6.14808 24.1441 6.39088C24.0435 6.63368 23.896 6.85425 23.71 7.04L23.65 7.1C23.4195 7.33568 23.2648 7.63502 23.206 7.95941C23.1472 8.28381 23.1869 8.61838 23.32 8.92V9C23.4468 9.29577 23.6572 9.54802 23.9255 9.72569C24.1938 9.90337 24.5082 9.99872 24.83 10H25C25.5304 10 26.0391 10.2107 26.4142 10.5858C26.7893 10.9609 27 11.4696 27 12C27 12.5304 26.7893 13.0391 26.4142 13.4142C26.0391 13.7893 25.5304 14 25 14H24.91C24.5882 14.0013 24.2738 14.0966 24.0055 14.2743C23.7372 14.452 23.5268 14.7042 23.4 15V15Z" stroke="#F5F5F5" stroke-width="2" stroke-linecap="round" stroke-linejoin="round"/>
</g>
<path d="M2.384 33.056C2.016 33.056 1.68533 32.992 1.392 32.864C1.104 32.7307 0.877333 32.5493 0.712 32.32C0.546667 32.0853 0.461333 31.816 0.456 31.512H1.232C1.25867 31.7733 1.36533 31.9947 1.552 32.176C1.744 32.352 2.02133 32.44 2.384 32.44C2.73067 32.44 3.00267 32.3547 3.2 32.184C3.40267 32.008 3.504 31.784 3.504 31.512C3.504 31.2987 3.44533 31.1253 3.328 30.992C3.21067 30.8587 3.064 30.7573 2.888 30.688C2.712 30.6187 2.47467 30.544 2.176 30.464C1.808 30.368 1.512 30.272 1.288 30.176C1.06933 30.08 0.88 29.9307 0.72 29.728C0.565333 29.52 0.488 29.2427 0.488 28.896C0.488 28.592 0.565333 28.3227 0.72 28.088C0.874667 27.8533 1.09067 27.672 1.368 27.544C1.65067 27.416 1.97333 27.352 2.336 27.352C2.85867 27.352 3.28533 27.4827 3.616 27.744C3.952 28.0053 4.14133 28.352 4.184 28.784H3.384C3.35733 28.5707 3.24533 28.384 3.048 28.224C2.85067 28.0587 2.58933 27.976 2.264 27.976C1.96 27.976 1.712 28.056 1.52 28.216C1.328 28.3707 1.232 28.5893 1.232 28.872C1.232 29.0747 1.288 29.24 1.4 29.368C1.51733 29.496 1.65867 29.5947 1.824 29.664C1.99467 29.728 2.232 29.8027 2.536 29.888C2.904 29.9893 3.2 30.0907 3.424 30.192C3.648 30.288 3.84 30.44 4 30.648C4.16 30.8507 4.24 31.128 4.24 31.48C4.24 31.752 4.168 32.008 4.024 32.248C3.88 32.488 3.66667 32.6827 3.384 32.832C3.10133 32.9813 2.768 33.056 2.384 33.056ZM9.31131 30.64C9.31131 30.7787 9.30331 30.9253 9.28731 31.08H5.78331C5.80998 31.512 5.95665 31.8507 6.22331 32.096C6.49531 32.336 6.82331 32.456 7.20731 32.456C7.52198 32.456 7.78331 32.384 7.99131 32.24C8.20465 32.0907 8.35398 31.8933 8.43931 31.648H9.22331C9.10598 32.0693 8.87131 32.4133 8.51931 32.68C8.16731 32.9413 7.72998 33.072 7.20731 33.072C6.79131 33.072 6.41798 32.9787 6.08731 32.792C5.76198 32.6053 5.50598 32.3413 5.31931 32C5.13265 31.6533 5.03931 31.2533 5.03931 30.8C5.03931 30.3467 5.12998 29.9493 5.31131 29.608C5.49265 29.2667 5.74598 29.0053 6.07131 28.824C6.40198 28.6373 6.78065 28.544 7.20731 28.544C7.62331 28.544 7.99131 28.6347 8.31131 28.816C8.63131 28.9973 8.87665 29.248 9.04731 29.568C9.22331 29.8827 9.31131 30.24 9.31131 30.64ZM8.55931 30.488C8.55931 30.2107 8.49798 29.9733 8.37531 29.776C8.25265 29.5733 8.08465 29.4213 7.87131 29.32C7.66331 29.2133 7.43131 29.16 7.17531 29.16C6.80731 29.16 6.49265 29.2773 6.23131 29.512C5.97531 29.7467 5.82865 30.072 5.79131 30.488H8.55931ZM11.1603 29.216V31.8C11.1603 32.0133 11.2056 32.1653 11.2963 32.256C11.3869 32.3413 11.5443 32.384 11.7682 32.384H12.3043V33H11.6483C11.2429 33 10.9389 32.9067 10.7363 32.72C10.5336 32.5333 10.4323 32.2267 10.4323 31.8V29.216H9.86425V28.616H10.4323V27.512H11.1603V28.616H12.3043V29.216H11.1603ZM14.0743 29.216V31.8C14.0743 32.0133 14.1196 32.1653 14.2103 32.256C14.301 32.3413 14.4583 32.384 14.6823 32.384H15.2183V33H14.5623C14.157 33 13.853 32.9067 13.6503 32.72C13.4476 32.5333 13.3463 32.2267 13.3463 31.8V29.216H12.7783V28.616H13.3463V27.512H14.0743V28.616H15.2183V29.216H14.0743ZM16.4764 27.904C16.3377 27.904 16.2204 27.856 16.1244 27.76C16.0284 27.664 15.9804 27.5467 15.9804 27.408C15.9804 27.2693 16.0284 27.152 16.1244 27.056C16.2204 26.96 16.3377 26.912 16.4764 26.912C16.6097 26.912 16.7217 26.96 16.8124 27.056C16.9084 27.152 16.9564 27.2693 16.9564 27.408C16.9564 27.5467 16.9084 27.664 16.8124 27.76C16.7217 27.856 16.6097 27.904 16.4764 27.904ZM16.8284 28.616V33H16.1004V28.616H16.8284ZM20.2051 28.536C20.7385 28.536 21.1705 28.6987 21.5011 29.024C21.8318 29.344 21.9971 29.808 21.9971 30.416V33H21.2771V30.52C21.2771 30.0827 21.1678 29.7493 20.9491 29.52C20.7305 29.2853 20.4318 29.168 20.0531 29.168C19.6691 29.168 19.3625 29.288 19.1331 29.528C18.9091 29.768 18.7971 30.1173 18.7971 30.576V33H18.0691V28.616H18.7971V29.24C18.9411 29.016 19.1358 28.8427 19.3811 28.72C19.6318 28.5973 19.9065 28.536 20.2051 28.536ZM24.9943 28.544C25.373 28.544 25.7036 28.6267 25.9863 28.792C26.2743 28.9573 26.4876 29.1653 26.6263 29.416V28.616H27.3623V33.096C27.3623 33.496 27.277 33.8507 27.1063 34.16C26.9356 34.4747 26.6903 34.72 26.3703 34.896C26.0556 35.072 25.6876 35.16 25.2663 35.16C24.6903 35.16 24.2103 35.024 23.8263 34.752C23.4423 34.48 23.2156 34.1093 23.1463 33.64H23.8663C23.9463 33.9067 24.1116 34.12 24.3623 34.28C24.613 34.4453 24.9143 34.528 25.2663 34.528C25.6663 34.528 25.9916 34.4027 26.2423 34.152C26.4983 33.9013 26.6263 33.5493 26.6263 33.096V32.176C26.4823 32.432 26.269 32.6453 25.9863 32.816C25.7036 32.9867 25.373 33.072 24.9943 33.072C24.605 33.072 24.2503 32.976 23.9303 32.784C23.6156 32.592 23.3676 32.3227 23.1863 31.976C23.005 31.6293 22.9143 31.2347 22.9143 30.792C22.9143 30.344 23.005 29.952 23.1863 29.616C23.3676 29.2747 23.6156 29.0107 23.9303 28.824C24.2503 28.6373 24.605 28.544 24.9943 28.544ZM26.6263 30.8C26.6263 30.4693 26.5596 30.1813 26.4263 29.936C26.293 29.6907 26.1116 29.504 25.8823 29.376C25.6583 29.2427 25.4103 29.176 25.1383 29.176C24.8663 29.176 24.6183 29.24 24.3943 29.368C24.1703 29.496 23.9916 29.6827 23.8583 29.928C23.725 30.1733 23.6583 30.4613 23.6583 30.792C23.6583 31.128 23.725 31.4213 23.8583 31.672C23.9916 31.9173 24.1703 32.1067 24.3943 32.24C24.6183 32.368 24.8663 32.432 25.1383 32.432C25.4103 32.432 25.6583 32.368 25.8823 32.24C26.1116 32.1067 26.293 31.9173 26.4263 31.672C26.5596 31.4213 26.6263 31.1307 26.6263 30.8ZM30.1446 33.072C29.8086 33.072 29.5072 33.016 29.2406 32.904C28.9739 32.7867 28.7632 32.6267 28.6086 32.424C28.4539 32.216 28.3686 31.9787 28.3526 31.712H29.1046C29.1259 31.9307 29.2272 32.1093 29.4086 32.248C29.5952 32.3867 29.8379 32.456 30.1366 32.456C30.4139 32.456 30.6326 32.3947 30.7926 32.272C30.9526 32.1493 31.0326 31.9947 31.0326 31.808C31.0326 31.616 30.9472 31.4747 30.7766 31.384C30.6059 31.288 30.3419 31.1947 29.9846 31.104C29.6592 31.0187 29.3926 30.9333 29.1846 30.848C28.9819 30.7573 28.8059 30.6267 28.6566 30.456C28.5126 30.28 28.4406 30.0507 28.4406 29.768C28.4406 29.544 28.5072 29.3387 28.6406 29.152C28.7739 28.9653 28.9632 28.8187 29.2086 28.712C29.4539 28.6 29.7339 28.544 30.0486 28.544C30.5339 28.544 30.9259 28.6667 31.2246 28.912C31.5232 29.1573 31.6832 29.4933 31.7046 29.92H30.9766C30.9606 29.6907 30.8672 29.5067 30.6966 29.368C30.5312 29.2293 30.3072 29.16 30.0246 29.16C29.7632 29.16 29.5552 29.216 29.4006 29.328C29.2459 29.44 29.1686 29.5867 29.1686 29.768C29.1686 29.912 29.2139 30.032 29.3046 30.128C29.4006 30.2187 29.5179 30.2933 29.6566 30.352C29.8006 30.4053 29.9979 30.4667 30.2486 30.536C30.5632 30.6213 30.8192 30.7067 31.0166 30.792C31.2139 30.872 31.3819 30.9947 31.5206 31.16C31.6646 31.3253 31.7392 31.5413 31.7446 31.808C31.7446 32.048 31.6779 32.264 31.5446 32.456C31.4112 32.648 31.2219 32.8 30.9766 32.912C30.7366 33.0187 30.4592 33.072 30.1446 33.072Z" fill="#F5F5F5"/>
<defs>
<clipPath id="clip0_113_21">
<rect width="24" height="24" fill="white" transform="translate(4)"/>
</clipPath>
</defs>
</svg>
