<svg width="16" height="16" viewBox="0 0 16 16" fill="none" xmlns="http://www.w3.org/2000/svg">
<path d="M2 4H3.33333H14" stroke="#FF0000" stroke-width="2" stroke-linecap="round" stroke-linejoin="round"/>
<path d="M12.6667 3.99999V13.3333C12.6667 13.6869 12.5262 14.0261 12.2761 14.2761C12.0261 14.5262 11.6869 14.6667 11.3333 14.6667H4.66666C4.31304 14.6667 3.9739 14.5262 3.72385 14.2761C3.4738 14.0261 3.33333 13.6869 3.33333 13.3333V3.99999M5.33333 3.99999V2.66666C5.33333 2.31304 5.4738 1.9739 5.72385 1.72385C5.9739 1.4738 6.31304 1.33333 6.66666 1.33333H9.33333C9.68695 1.33333 10.0261 1.4738 10.2761 1.72385C10.5262 1.9739 10.6667 2.31304 10.6667 2.66666V3.99999" stroke="#FF0000" stroke-width="2" stroke-linecap="round" stroke-linejoin="round"/>
<path d="M6.66667 7.33333V11.3333" stroke="#FF0000" stroke-width="2" stroke-linecap="round" stroke-linejoin="round"/>
<path d="M9.33333 7.33333V11.3333" stroke="#FF0000" stroke-width="2" stroke-linecap="round" stroke-linejoin="round"/>
</svg>
